<svg width="1744.000000pt" height="1032.000000pt" viewBox="0 0 1744.000000 1032.000000" xmlns="http://www.w3.org/2000/svg">
  <g transform="translate(0.000000,1032.000000) scale(0.100000,-0.100000)" fill="none" stroke="none">
    <path d="M0 5160 l0 -5160 8720 0 8720 0 0 5160 0 5160 -8720 0 -8720 0 0
-5160z m11566 4383 c57 -19 116 -57 160 -105 34 -36 84 -124 84 -148 0 -28 58
-115 105 -159 67 -62 138 -91 245 -101 106 -10 177 -39 234 -96 39 -39 86
-124 86 -156 0 -17 43 -18 758 -18 795 0 807 -1 892 -45 92 -48 148 -105 198
-204 37 -75 37 -75 40 -3800 2 -2759 0 -3743 -8 -3793 -22 -125 -104 -232
-228 -295 -75 -38 -75 -38 -2741 -38 -2666 0 -2666 0 -2736 34 -117 58 -197
155 -230 281 -23 87 -22 7443 1 7534 39 151 150 265 303 310 48 14 148 16 812
16 757 0 757 0 764 30 19 84 94 173 179 211 30 13 83 24 135 28 108 9 181 41
254 110 30 28 63 72 74 98 12 26 33 73 46 103 41 95 104 154 206 196 73 30
286 34 367 7z m-5865 -1620 c73 -24 81 -24 111 -10 79 36 122 30 176 -26 61
-63 76 -133 42 -202 -33 -69 -89 -115 -140 -115 -22 0 -22 -1 -15 -137 10
-195 -8 -305 -65 -388 -16 -25 -20 -46 -20 -122 0 -91 0 -91 84 -98 46 -4 102
-4 125 0 22 4 41 3 41 -2 0 -5 48 -17 107 -27 123 -21 180 -43 239 -92 78 -63
237 -277 339 -456 22 -38 44 -68 51 -68 6 0 40 39 75 87 35 48 101 137 147
198 53 70 88 129 99 163 17 52 17 52 -24 95 -22 23 -55 67 -73 97 -33 54 -33
54 -20 137 19 121 37 113 60 -27 14 -84 49 -101 110 -50 35 29 35 29 11 99
-24 70 -24 70 -85 73 -61 3 -61 3 -26 25 20 13 51 23 72 23 32 0 39 -5 65 -45
16 -26 34 -44 43 -43 21 4 32 91 28 219 -3 88 -1 103 9 89 15 -21 43 -147 43
-191 0 -50 28 -36 35 19 3 26 10 72 17 102 10 50 11 53 20 30 6 -14 8 -73 6
-132 -4 -99 -3 -108 14 -108 10 0 18 4 18 10 0 5 10 35 22 67 19 52 22 55 28
33 17 -63 -25 -283 -77 -405 -14 -33 -32 -94 -39 -135 -8 -41 -25 -120 -39
-175 -14 -56 -25 -107 -25 -115 0 -34 -148 -302 -256 -465 -125 -187 -211
-265 -294 -265 -60 0 -135 37 -190 94 -24 25 -49 46 -55 46 -23 0 -5 -194 65
-717 31 -230 39 -308 32 -314 -12 -12 -126 -56 -164 -63 -35 -6 -35 -6 -42
-149 -3 -78 -11 -203 -16 -277 -5 -74 -17 -241 -25 -370 -8 -129 -19 -298 -25
-375 -12 -173 -26 -380 -45 -680 -8 -126 -19 -295 -25 -375 -5 -80 -17 -251
-25 -380 -8 -129 -19 -302 -25 -385 -5 -82 -15 -220 -20 -305 -6 -85 -13 -176
-16 -203 -6 -47 -6 -47 -44 -47 -47 0 -47 1 -56 -151 -6 -115 -6 -115 62 -128
133 -24 273 -112 318 -199 17 -32 17 -32 -345 -32 -361 0 -361 0 -355 62 10
102 26 339 26 396 0 52 0 52 -51 52 -51 0 -51 0 -45 72 4 40 11 190 16 333 19
498 40 1022 50 1265 6 135 17 416 25 625 8 209 17 445 20 525 3 80 8 178 10
218 4 65 3 72 -14 72 -16 0 -21 -15 -35 -102 -17 -110 -62 -374 -121 -713 -20
-115 -43 -248 -50 -295 -8 -47 -21 -125 -30 -175 -9 -49 -38 -220 -65 -380
-27 -159 -56 -330 -65 -380 -9 -49 -22 -128 -30 -175 -7 -47 -30 -182 -51
-300 -20 -118 -51 -298 -68 -400 -31 -185 -31 -185 -86 -190 -39 -4 -55 -9
-57 -20 -12 -101 -73 -483 -77 -487 -2 -2 -153 -2 -337 -1 -333 3 -333 3 -295
45 49 55 128 102 252 152 99 40 99 40 136 153 53 161 54 158 -33 158 -71 0
-71 0 -65 63 3 34 15 154 25 267 11 113 27 279 36 370 8 91 20 208 25 260 5
52 17 169 25 260 9 91 24 255 35 365 11 110 26 274 35 365 8 91 20 208 25 260
5 52 17 169 25 260 18 192 48 498 70 721 20 213 23 196 -27 204 -110 16 -176
36 -172 53 17 84 38 1492 22 1492 -9 0 -124 -75 -238 -155 -25 -17 -110 -76
-190 -130 -80 -55 -184 -126 -232 -160 -47 -33 -152 -105 -232 -160 -165 -112
-158 -95 -136 -320 13 -125 26 -271 45 -490 8 -93 19 -217 25 -275 5 -58 18
-208 30 -335 11 -126 27 -302 35 -390 9 -88 20 -214 25 -280 6 -66 17 -194 26
-285 22 -239 32 -354 49 -545 8 -93 19 -219 25 -280 6 -60 17 -186 25 -280 8
-93 19 -217 25 -275 5 -58 18 -208 30 -335 11 -126 25 -274 30 -327 15 -152
-9 -235 -96 -328 -25 -27 -69 -60 -98 -74 -48 -24 -64 -26 -171 -26 -138 0
-175 13 -254 91 -81 80 -101 141 -121 364 -29 333 -42 478 -60 675 -11 118
-27 294 -35 391 -8 97 -20 223 -25 280 -6 57 -17 181 -25 274 -8 94 -19 220
-25 280 -5 61 -15 160 -20 220 -6 61 -17 184 -25 275 -42 490 -74 845 -104
1160 -6 58 -13 139 -16 180 -11 148 -16 170 -34 170 -23 0 -94 62 -119 103
-31 49 -62 155 -62 207 0 60 29 104 98 150 60 39 59 36 42 215 -16 163 -45
478 -70 780 -12 140 -12 140 89 550 56 226 106 419 111 430 5 11 11 58 15 105
3 47 11 103 16 125 11 39 11 39 25 5 8 -18 25 -70 38 -114 13 -45 64 -164 114
-266 337 -693 309 -624 321 -772 6 -73 16 -178 21 -233 18 -179 30 -319 30
-347 0 -38 22 -36 68 6 77 71 322 272 447 365 455 342 830 530 1128 566 57 7
57 7 57 121 0 113 0 113 -35 151 -19 21 -38 46 -41 56 -4 13 -16 17 -47 17
-62 0 -109 35 -131 97 -13 39 -11 57 13 105 13 25 11 30 -13 59 -92 109 -96
210 -11 288 24 22 48 41 53 41 4 0 14 16 21 35 17 49 53 88 109 121 101 59
210 65 353 17z" />
    <path d="M11310 9439 c-161 -67 -178 -292 -28 -370 80 -41 218 -20 274 43 49
53 59 190 17 246 -42 57 -98 86 -171 89 -37 2 -78 -2 -92 -8z" />
    <path d="M8916 8178 c-3 -156 -13 -569 -21 -918 -27 -1179 -69 -2592 -95
-3215 -5 -126 -14 -342 -19 -480 -11 -258 -24 -515 -41 -810 -6 -93 -13 -215
-16 -270 -10 -180 -40 -593 -65 -873 -6 -73 -9 -135 -8 -137 2 -2 64 -7 137
-11 132 -7 132 -7 132 -100 l0 -94 2480 0 2480 0 0 1240 c0 1096 -2 1240 -15
1240 -11 0 -15 -13 -15 -54 0 -96 -29 -806 -40 -971 -34 -525 -92 -921 -161
-1116 -20 -56 -20 -56 -97 -63 -42 -3 -158 -13 -257 -21 -372 -31 -436 -36
-675 -50 -929 -58 -1837 -88 -3062 -101 -598 -7 -598 -7 -598 36 0 43 0 43
113 36 61 -3 335 -9 607 -12 812 -10 1487 27 2465 136 321 36 963 124 1230
170 33 5 60 10 61 10 10 1 82 206 123 350 174 611 258 1291 321 2590 20 414
32 1845 24 2735 -9 870 -9 870 -84 877 -41 3 -158 11 -260 18 -102 6 -243 15
-315 20 -71 5 -202 14 -290 20 -88 5 -188 12 -222 15 -63 6 -63 6 -63 -160 l0
-165 -1275 0 -1275 0 -2 203 -3 202 -596 3 -596 2 -7 -282z m1899 -428 c231
-6 737 -17 1125 -26 388 -8 706 -17 708 -19 2 -2 0 -85 -4 -185 l-7 -182 -176
6 c-97 4 -367 11 -601 16 -912 21 -1726 40 -1752 40 -28 0 -28 0 -28 169 0 93
3 177 6 186 6 15 22 16 158 11 83 -4 340 -11 571 -16z m-568 -783 c12 -9 -12
-41 -134 -177 -17 -19 -23 -38 -25 -80 -1 -36 -3 -44 -5 -22 -2 17 -10 32 -17
32 -15 0 -78 -65 -183 -190 -90 -106 -106 -117 -139 -95 -41 27 -64 76 -93
199 -14 58 -9 66 27 44 21 -13 32 -33 48 -90 12 -42 27 -74 35 -75 8 -2 28 16
45 40 17 23 68 83 113 134 46 52 81 101 81 112 0 14 6 21 19 21 11 0 50 36 97
89 82 94 85 95 131 58z m-710 -214 c-2 -16 -4 -3 -4 27 0 30 2 43 4 28 2 -16
2 -40 0 -55z m306 70 c-35 -2 -91 -2 -125 0 -35 2 -7 3 62 3 69 0 97 -1 63 -3z
m1692 -43 c220 -5 591 -14 825 -20 234 -5 507 -13 608 -16 182 -7 182 -7 182
-82 0 -75 0 -75 -227 -68 -126 3 -419 11 -653 16 -234 6 -600 15 -815 20 -214
5 -441 10 -502 10 -113 0 -113 0 -113 75 0 75 0 75 148 75 81 0 327 -5 547
-10z m-2008 -347 c-2 -37 -3 -9 -3 62 0 72 1 102 3 68 2 -34 2 -93 0 -130z
m553 -88 c0 -85 0 -85 -67 -83 -68 2 -68 2 -5 5 62 4 62 4 62 83 0 44 2 80 5
80 3 0 5 -38 5 -85z m1708 34 c602 -13 602 -13 602 -88 0 -76 0 -76 -532 -65
-293 6 -644 15 -780 19 -248 7 -248 7 -248 83 0 75 0 75 178 69 97 -3 448 -12
780 -18z m-2120 -106 c-26 -2 -71 -2 -100 0 -29 2 -8 3 47 3 55 0 79 -1 53 -3z
m551 -319 c13 -9 19 -19 15 -23 -31 -22 -157 -175 -163 -198 -4 -15 -16 -30
-27 -33 -11 -3 -38 -25 -60 -50 -21 -25 -55 -63 -75 -85 -21 -22 -56 -64 -79
-93 -69 -89 -116 -89 -158 0 -26 52 -59 185 -49 195 4 3 19 -2 34 -13 20 -15
32 -40 47 -92 11 -41 24 -72 32 -72 7 0 24 15 39 33 52 64 94 113 159 187 36
41 66 80 66 87 0 9 -32 13 -112 16 -113 3 -113 3 19 5 72 1 133 6 135 11 9 24
123 141 137 141 9 0 27 -7 40 -16z m-682 -130 c-3 -3 -12 -4 -19 -1 -8 3 -5 6
6 6 11 1 17 -2 13 -5z m2088 -54 c215 -5 546 -13 738 -16 347 -7 347 -7 347
-85 0 -77 0 -77 -157 -73 -616 16 -976 24 -1293 29 -201 3 -384 8 -407 11 -43
5 -43 5 -43 81 0 76 0 76 213 69 116 -4 388 -11 602 -16z m-2118 -197 c-2 -21
-4 -6 -4 32 0 39 2 55 4 38 2 -18 2 -50 0 -70z m550 -155 c-2 -35 -3 -7 -3 62
0 69 1 97 3 63 2 -35 2 -91 0 -125z m1403 -38 c217 -5 584 -14 815 -20 231 -5
513 -13 628 -16 207 -7 207 -7 207 -82 0 -75 0 -75 -212 -68 -117 4 -505 13
-863 21 -1395 32 -1238 23 -1231 64 3 20 6 53 6 74 0 37 0 37 128 37 70 0 305
-5 522 -10z m-1963 -102 c-3 -7 -5 -2 -5 12 0 14 2 19 5 13 2 -7 2 -19 0 -25z
m276 -15 c-35 -2 -91 -2 -125 0 -35 2 -7 3 62 3 69 0 97 -1 63 -3z m419 -321
c28 -18 28 -18 -62 -121 -90 -103 -90 -103 -92 -199 -2 -97 -2 -97 -5 -19 -4
86 -14 95 -53 50 -13 -16 -60 -70 -104 -122 -120 -140 -123 -143 -153 -139
-32 4 -73 59 -91 121 -17 61 -33 139 -29 143 1 2 17 -5 34 -15 24 -16 34 -32
48 -86 23 -83 38 -91 79 -39 17 21 75 89 129 151 53 61 97 116 97 122 0 5 -24
12 -52 14 -51 3 -50 3 13 5 66 2 66 2 134 77 37 41 70 75 74 75 3 0 18 -8 33
-18z m-614 -129 c-87 -4 -87 -4 -91 -116 -3 -112 -3 -112 -5 6 -2 117 -2 117
91 115 92 -2 92 -2 5 -5z m1792 -43 c195 -5 544 -14 775 -20 1075 -25 955 -13
955 -96 0 -74 0 -74 -102 -74 -57 0 -278 5 -493 10 -214 5 -581 14 -815 20
-988 23 -900 14 -900 97 0 73 0 73 113 73 61 0 272 -4 467 -10z m-1832 -503
c57 -3 57 -3 -5 -5 -63 -2 -63 -2 -61 111 2 112 2 112 5 5 4 -107 4 -107 61
-111z m1815 107 c447 -7 447 -7 447 -83 0 -76 0 -76 -507 -65 -280 6 -509 12
-510 13 -2 0 -3 35 -3 77 0 76 0 76 63 70 34 -3 263 -8 510 -12z m-1326 -111
c-3 -10 -5 -4 -5 12 0 17 2 24 5 18 2 -7 2 -21 0 -30z m-134 -10 c-35 -2 -91
-2 -125 0 -35 2 -7 3 62 3 69 0 97 -1 63 -3z m272 -305 c14 -6 25 -16 25 -22
0 -6 -38 -54 -85 -106 -84 -95 -84 -95 -87 -170 -1 -64 -2 -67 -5 -22 -3 35
-8 52 -17 52 -8 0 -43 -33 -77 -72 -35 -40 -76 -86 -92 -103 -15 -16 -37 -44
-49 -62 -22 -31 -56 -53 -83 -53 -37 0 -94 118 -111 229 -7 45 -7 45 27 25 33
-20 41 -37 63 -136 10 -45 37 -34 93 40 29 37 81 99 117 137 39 42 65 79 66
93 0 15 6 22 19 22 11 0 47 33 87 80 75 87 72 85 109 68z m-698 -170 c-3 -7
-5 -2 -5 12 0 14 2 19 5 13 2 -7 2 -19 0 -25z m280 25 c-20 -2 -52 -2 -70 0
-17 2 0 4 38 4 39 0 53 -2 32 -4z m1433 -38 c645 -12 1624 -35 1758 -41 142
-6 142 -6 142 -68 0 -33 -4 -67 -8 -74 -9 -13 -35 -12 -1267 18 -214 5 -538
13 -718 17 -329 6 -329 6 -323 36 3 16 6 51 6 78 0 48 0 48 63 44 34 -3 190
-7 347 -10z m-1723 -297 c-2 -35 -3 -7 -3 62 0 69 1 97 3 63 2 -35 2 -91 0
-125z m553 -113 c0 -115 0 -115 -97 -113 -98 2 -98 2 -5 5 92 4 92 4 92 113 0
61 2 110 5 110 3 0 5 -52 5 -115z m1670 5 c989 -23 901 -14 894 -94 -4 -39 -8
-73 -10 -75 -2 -2 -203 1 -446 7 -244 7 -652 17 -907 24 -463 12 -463 12 -457
47 3 20 6 54 6 75 0 39 0 39 263 32 144 -3 440 -11 657 -16z m-2027 -107 c-35
-2 -91 -2 -125 0 -35 2 -7 3 62 3 69 0 97 -1 63 -3z m496 -302 c24 -18 24 -18
-62 -117 -48 -54 -87 -106 -87 -116 0 -11 -7 -18 -20 -18 -11 0 -20 -3 -20 -7
0 -5 -21 -30 -47 -58 -92 -101 -119 -131 -156 -177 -79 -98 -132 -71 -178 91
-22 77 -24 111 -6 111 27 -1 46 -29 66 -98 14 -44 27 -72 36 -72 7 0 31 21 52
47 38 48 56 68 152 176 28 31 51 64 51 72 0 8 6 15 14 15 8 0 21 8 28 18 31
43 133 152 142 152 6 0 22 -9 35 -19z m-702 -293 c-2 -29 -3 -6 -3 52 0 58 1
81 3 53 2 -29 2 -77 0 -105z m356 145 c-35 -2 -91 -2 -125 0 -35 2 -7 3 62 3
69 0 97 -1 63 -3z m1510 -39 c327 -7 327 -7 327 -82 0 -75 0 -75 -387 -68
-214 3 -416 9 -450 13 -63 6 -63 6 -63 81 0 75 0 75 123 69 67 -4 269 -10 450
-13z m-1316 -286 c-2 -35 -3 -7 -3 62 0 69 1 97 3 63 2 -35 2 -91 0 -125z
m1718 -118 c193 -5 571 -15 842 -21 491 -12 491 -12 477 -57 -7 -25 -22 -55
-34 -66 -20 -21 -27 -21 -543 -19 -287 0 -668 6 -847 12 -179 6 -450 13 -602
17 -278 7 -278 7 -278 43 0 20 3 53 7 75 6 38 6 38 317 32 171 -4 469 -11 661
-16z m-2157 -103 c117 -3 117 -3 -5 -5 -123 -2 -123 -2 -121 61 2 62 2 62 5 5
4 -57 4 -57 121 -61z m432 18 c0 -35 0 -35 -42 -33 -43 1 -43 1 -5 5 33 4 37
7 37 34 0 16 2 29 5 29 3 0 5 -16 5 -35z" />
    <path d="M12670 8440 c0 -20 6 -20 336 -20 314 0 335 1 332 18 -3 16 -28 17
-336 20 -327 2 -332 2 -332 -18z" />
    <path d="M5600 7146 c0 -7 11 -25 25 -40 32 -35 86 -36 120 -1 46 45 35 55
-60 55 -65 0 -85 -3 -85 -14z" />
    <path d="M5430 6713 c0 -35 27 -165 45 -219 41 -123 101 -389 129 -579 40
-270 46 -675 12 -855 -7 -41 -17 -92 -21 -112 -7 -38 -7 -38 31 -38 22 0 84 7
139 15 55 8 104 15 109 15 9 0 8 7 -18 200 -39 289 -56 763 -37 1020 8 109 10
236 5 372 -8 232 -7 230 -75 183 -81 -54 -173 -54 -260 0 -49 32 -59 31 -59
-2z" />
  </g>
  <g transform="translate(0.000000,1032.000000) scale(0.100000,-0.100000)" fill="#a8b9e5" stroke="none">
    <path d="M8708 8751 c-148 -48 -254 -159 -292 -307 -23 -90 -24 -7467 -1
-7554 33 -126 113 -223 230 -281 70 -34 70 -34 2746 -34 2676 0 2676 0 2752
39 116 58 196 157 223 275 11 45 14 390 14 1829 0 1411 3 1772 13 1772 9 0 9
2 0 8 -10 6 -13 428 -15 1978 -3 1970 -3 1970 -40 2045 -50 99 -106 156 -198
204 -85 44 -97 45 -892 45 l-758 0 0 -170 c0 -170 0 -170 95 -170 62 0 95 4
95 11 0 11 361 8 948 -7 232 -6 232 -6 232 -71 0 -49 4 -69 16 -77 14 -11 16
-144 17 -1437 1 -977 -3 -1545 -12 -1809 -9 -273 -13 -874 -12 -2072 l2 -1688
-2471 0 -2470 0 0 94 c0 93 0 93 -132 100 -73 4 -134 9 -136 11 -2 1 2 58 8
126 21 236 54 680 64 864 3 55 10 177 16 270 17 295 30 552 41 810 5 138 14
354 19 480 26 623 68 2036 95 3215 8 349 18 762 21 918 l7 282 583 0 c378 0
585 -4 589 -10 3 -5 46 -10 96 -10 89 0 89 0 89 170 l0 170 -762 -1 c-708 0
-767 -1 -820 -18z" />
    <path d="M6030 7684 c0 -8 5 -12 10 -9 6 3 10 10 10 16 0 5 -4 9 -10 9 -5 0
-10 -7 -10 -16z" />
    <path d="M6030 6825 c0 -8 7 -15 15 -15 9 0 12 6 9 15 -4 8 -10 15 -15 15 -5
0 -9 -7 -9 -15z" />
    <path d="M4925 6690 c-3 -5 1 -10 9 -10 9 0 16 5 16 10 0 6 -4 10 -9 10 -6 0
-13 -4 -16 -10z" />
    <path d="M9516 6631 c-4 -7 -5 -15 -2 -18 9 -9 19 4 14 18 -4 11 -6 11 -12 0z" />
    <path d="M4785 6620 c-3 -5 1 -10 9 -10 9 0 16 5 16 10 0 6 -4 10 -9 10 -6 0
-13 -4 -16 -10z" />
    <path d="M7060 6545 c0 -8 7 -15 15 -15 8 0 15 7 15 15 0 8 -7 15 -15 15 -8 0
-15 -7 -15 -15z" />
    <path d="M5480 6436 c0 -9 7 -16 16 -16 17 0 14 22 -4 28 -7 2 -12 -3 -12 -12z" />
    <path d="M6630 6406 c0 -9 5 -16 10 -16 6 0 10 4 10 9 0 6 -4 13 -10 16 -5 3
-10 -1 -10 -9z" />
    <path d="M5490 6385 c0 -8 7 -15 15 -15 8 0 15 7 15 15 0 8 -7 15 -15 15 -8 0
-15 -7 -15 -15z" />
    <path d="M7230 6385 c0 -8 7 -15 15 -15 8 0 15 7 15 15 0 8 -7 15 -15 15 -8 0
-15 -7 -15 -15z" />
    <path d="M5500 6315 c0 -8 7 -15 15 -15 8 0 15 7 15 15 0 8 -7 15 -15 15 -8 0
-15 -7 -15 -15z" />
    <path d="M5510 6235 c0 -8 7 -15 15 -15 8 0 15 7 15 15 0 8 -7 15 -15 15 -8 0
-15 -7 -15 -15z" />
    <path d="M5520 6175 c0 -8 7 -15 15 -15 8 0 15 7 15 15 0 8 -7 15 -15 15 -8 0
-15 -7 -15 -15z" />
    <path d="M4115 6170 c-3 -5 1 -10 9 -10 9 0 16 5 16 10 0 6 -4 10 -9 10 -6 0
-13 -4 -16 -10z" />
    <path d="M5810 6160 c0 -11 7 -20 15 -20 8 0 15 9 15 20 0 11 -7 20 -15 20 -8
0 -15 -9 -15 -20z" />
    <path d="M7220 6164 c0 -8 5 -12 10 -9 6 3 10 10 10 16 0 5 -4 9 -10 9 -5 0
-10 -7 -10 -16z" />
    <path d="M5530 6075 c0 -8 7 -15 15 -15 8 0 15 7 15 15 0 8 -7 15 -15 15 -8 0
-15 -7 -15 -15z" />
    <path d="M5820 5990 c0 -11 7 -20 15 -20 8 0 15 9 15 20 0 11 -7 20 -15 20 -8
0 -15 -9 -15 -20z" />
    <path d="M5540 5980 c0 -11 7 -20 15 -20 8 0 15 9 15 20 0 11 -7 20 -15 20 -8
0 -15 -9 -15 -20z" />
    <path d="M5830 5890 c0 -11 7 -20 15 -20 8 0 15 9 15 20 0 11 -7 20 -15 20 -8
0 -15 -9 -15 -20z" />
    <path d="M5550 5795 c0 -16 6 -25 15 -25 9 0 15 9 15 25 0 16 -6 25 -15 25 -9
0 -15 -9 -15 -25z" />
    <path d="M5840 5765 c0 -8 7 -15 15 -15 8 0 15 7 15 15 0 8 -7 15 -15 15 -8 0
-15 -7 -15 -15z" />
    <path d="M5850 5685 c0 -8 7 -15 15 -15 8 0 15 7 15 15 0 8 -7 15 -15 15 -8 0
-15 -7 -15 -15z" />
    <path d="M5860 5585 c0 -8 7 -15 15 -15 8 0 15 7 15 15 0 8 -7 15 -15 15 -8 0
-15 -7 -15 -15z" />
    <path d="M6675 5590 c3 -5 10 -10 16 -10 5 0 9 5 9 10 0 6 -7 10 -16 10 -8 0
-12 -4 -9 -10z" />
    <path d="M6490 5516 c0 -9 5 -16 10 -16 6 0 10 4 10 9 0 6 -4 13 -10 16 -5 3
-10 -1 -10 -9z" />
    <path d="M5870 5495 c0 -8 7 -15 15 -15 8 0 15 7 15 15 0 8 -7 15 -15 15 -8 0
-15 -7 -15 -15z" />
    <path d="M5550 5475 c0 -16 6 -25 15 -25 9 0 15 9 15 25 0 16 -6 25 -15 25 -9
0 -15 -9 -15 -25z" />
    <path d="M5880 5425 c0 -8 7 -15 15 -15 8 0 15 7 15 15 0 8 -7 15 -15 15 -8 0
-15 -7 -15 -15z" />
    <path d="M5540 5295 c0 -8 7 -15 15 -15 8 0 15 7 15 15 0 8 -7 15 -15 15 -8 0
-15 -7 -15 -15z" />
    <path d="M5900 5295 c0 -8 7 -15 15 -15 8 0 15 7 15 15 0 8 -7 15 -15 15 -8 0
-15 -7 -15 -15z" />
    <path d="M5910 5225 c0 -8 7 -15 15 -15 8 0 15 7 15 15 0 8 -7 15 -15 15 -8 0
-15 -7 -15 -15z" />
    <path d="M5530 5215 c0 -8 7 -15 15 -15 8 0 15 7 15 15 0 8 -7 15 -15 15 -8 0
-15 -7 -15 -15z" />
    <path d="M5520 5120 c0 -11 7 -20 15 -20 8 0 15 9 15 20 0 11 -7 20 -15 20 -8
0 -15 -9 -15 -20z" />
    <path d="M5930 5115 c0 -8 7 -15 15 -15 8 0 15 7 15 15 0 8 -7 15 -15 15 -8 0
-15 -7 -15 -15z" />
    <path d="M5950 5015 c0 -8 7 -15 15 -15 8 0 15 7 15 15 0 8 -7 15 -15 15 -8 0
-15 -7 -15 -15z" />
    <path d="M5490 4925 c0 -8 7 -15 15 -15 8 0 15 7 15 15 0 8 -7 15 -15 15 -8 0
-15 -7 -15 -15z" />
    <path d="M5570 4925 c0 -8 9 -15 20 -15 13 0 18 5 14 15 -4 8 -12 15 -20 15
-8 0 -14 -7 -14 -15z" />
    <path d="M11425 4610 c3 -5 10 -10 16 -10 5 0 9 5 9 10 0 6 -7 10 -16 10 -8 0
-12 -4 -9 -10z" />
    <path d="M4965 4480 c3 -5 10 -10 16 -10 5 0 9 5 9 10 0 6 -7 10 -16 10 -8 0
-12 -4 -9 -10z" />
    <path d="M9996 3481 c-4 -7 -5 -15 -2 -18 9 -9 19 4 14 18 -4 11 -6 11 -12 0z" />
  </g>
  <g transform="translate(0.000000,1032.000000) scale(0.100000,-0.100000)" fill="#708bd5" stroke="none">
    <path d="M10078 7779 c-1 -2 -4 -91 -7 -197 -6 -192 -6 -192 24 -192 30 0 956
-21 1750 -39 231 -6 506 -13 611 -17 l191 -7 8 192 c4 106 5 194 3 196 -2 2
-320 11 -708 19 -1335 30 -1536 35 -1702 42 -93 3 -169 5 -170 3z" />
    <path d="M5790 6789 c0 -32 5 -59 11 -61 7 -2 11 -95 12 -285 1 -154 4 -280 7
-278 3 2 3 -38 1 -87 -2 -54 1 -88 6 -85 6 4 8 -17 5 -50 -3 -32 -1 -53 4 -50
6 3 8 -24 6 -65 -3 -39 0 -68 4 -65 5 3 7 -15 5 -40 -2 -25 1 -43 5 -40 5 3 7
-20 6 -50 -2 -31 0 -53 5 -50 4 3 6 -18 4 -45 -2 -28 1 -48 6 -45 4 3 7 -13 5
-35 -3 -28 -1 -38 7 -34 7 5 9 1 5 -9 -8 -20 5 -127 14 -121 4 2 6 -14 4 -36
-3 -31 -1 -39 8 -33 9 5 11 4 6 -3 -10 -17 5 -113 17 -105 6 4 7 1 3 -6 -10
-16 3 -103 14 -96 4 3 6 -3 3 -13 -2 -11 14 -93 37 -183 23 -90 44 -174 47
-187 3 -13 17 -28 32 -33 36 -14 310 -7 319 8 4 6 21 14 37 18 54 12 167 59
172 70 4 11 -9 123 -37 330 -5 39 -14 106 -20 150 -6 44 -18 132 -26 195 -9
63 -19 168 -22 232 -7 117 -7 117 43 69 65 -63 105 -82 182 -89 56 -4 67 -2
105 23 94 61 224 237 362 488 95 175 110 207 108 236 -3 31 -31 63 -49 56 -8
-2 -12 -1 -9 4 8 12 -152 163 -164 156 -6 -4 -9 -3 -8 2 2 4 -1 10 -7 13 -10
5 -38 -30 -170 -210 -135 -184 -114 -172 -160 -93 -104 181 -262 394 -339 457
-60 50 -119 72 -244 92 -61 10 -108 22 -105 27 3 5 -26 6 -63 2 -38 -3 -97 -2
-131 3 -63 9 -63 9 -63 -49z" />
    <path d="M5375 6828 c-373 -58 -768 -268 -1300 -693 -92 -73 -292 -242 -323
-272 -13 -13 -3 -178 29 -455 l11 -98 122 84 c66 46 170 116 229 157 59 41
178 123 265 182 284 196 323 222 371 253 48 32 48 32 45 -345 -3 -379 -20
-1025 -29 -1093 -5 -36 -5 -36 68 -52 39 -9 89 -18 110 -21 20 -3 37 -10 37
-15 0 -25 202 -8 338 27 62 16 62 16 83 85 34 114 81 330 75 345 -3 8 -2 12 3
9 11 -7 34 164 25 188 -5 14 -4 17 5 11 10 -6 12 4 10 43 -2 27 0 48 5 45 4
-3 7 15 5 40 -2 25 0 43 5 40 5 -3 7 39 4 95 -2 55 0 98 4 96 4 -3 8 65 8 151
0 86 -4 154 -8 151 -4 -2 -6 41 -4 96 3 62 1 98 -5 95 -6 -4 -8 16 -5 50 3 31
1 53 -4 50 -5 -3 -7 20 -6 50 2 31 0 53 -5 50 -5 -3 -7 10 -5 30 3 20 1 33 -4
30 -5 -3 -7 15 -5 40 2 25 -1 43 -6 40 -4 -3 -7 13 -5 35 3 24 0 38 -5 35 -5
-3 -7 7 -5 25 3 21 1 29 -7 24 -6 -4 -9 -2 -5 7 2 7 -2 34 -10 58 -22 64 -48
199 -43 220 3 9 0 39 -7 66 -11 49 -11 49 -61 41z" />
    <path d="M9517 6675 c-4 -93 -7 -224 -7 -292 0 -123 0 -123 178 -123 97 0 227
-3 288 -6 111 -7 111 -7 116 242 3 137 3 251 1 253 -2 3 -9 -1 -15 -7 -8 -8
-11 -38 -9 -88 1 -42 0 -143 -4 -225 -8 -149 -8 -149 -129 -149 -66 0 -185 3
-262 7 -141 6 -141 6 -137 167 2 89 6 207 9 262 6 102 6 102 222 96 143 -3
219 -9 224 -16 5 -8 13 -6 25 6 9 10 14 20 10 24 -3 4 -118 9 -255 12 l-249 5
-6 -168z" />
    <path d="M10830 6715 c0 -85 0 -85 113 -85 61 0 288 -5 502 -10 215 -5 581
-14 815 -20 234 -5 532 -13 663 -16 237 -7 237 -7 237 78 0 85 0 85 -182 92
-101 3 -374 11 -608 16 -234 6 -605 15 -825 20 -220 5 -471 10 -557 10 -158 0
-158 0 -158 -85z" />
    <path d="M9496 5675 c-15 -428 -15 -415 3 -416 9 -1 138 -4 288 -8 271 -6 271
-6 277 104 13 246 12 366 -4 363 -11 -2 -15 -17 -15 -53 0 -28 -2 -128 -3
-223 l-2 -173 -262 7 c-145 4 -265 8 -266 10 -2 1 -1 120 3 263 8 261 8 261
114 260 58 -1 166 -4 239 -8 103 -4 136 -3 144 7 6 7 9 14 7 16 -2 2 -119 6
-261 8 l-256 3 -6 -160z" />
    <path d="M10800 5717 c0 -104 -45 -94 455 -102 325 -5 683 -13 1293 -29 172
-5 172 -5 172 83 0 88 0 88 -347 95 -426 8 -1040 23 -1345 32 -228 7 -228 7
-228 -79z" />
    <path d="M9466 4544 c-4 -157 -6 -288 -4 -289 2 -2 132 -7 289 -11 l286 -7 7
233 c4 128 4 235 1 238 -20 20 -27 -30 -25 -190 1 -275 14 -255 -158 -251 -81
2 -198 6 -259 9 -113 6 -113 6 -113 98 0 51 3 168 7 259 l6 167 176 -1 c97 0
207 -3 244 -8 52 -5 70 -4 79 6 6 7 9 15 7 17 -2 2 -124 6 -270 10 l-266 7 -7
-287z" />
    <path d="M10780 4707 c0 -95 -94 -84 900 -107 228 -6 593 -15 810 -20 217 -5
446 -10 508 -10 112 0 112 0 112 84 0 94 121 81 -955 106 -231 6 -580 15 -775
20 -195 6 -410 10 -477 10 -123 0 -123 0 -123 -83z" />
    <path d="M9447 3698 c-4 -66 -7 -195 -7 -284 0 -162 0 -164 23 -168 12 -3 142
-8 288 -11 l266 -6 6 238 c3 131 4 240 1 242 -17 17 -25 -42 -29 -229 -3 -118
-8 -216 -10 -218 -2 -3 -121 -1 -264 3 l-260 7 5 222 c8 345 -23 307 242 300
129 -4 230 -11 233 -17 8 -12 29 0 29 17 0 14 -177 26 -395 26 -122 0 -122 0
-128 -122z" />
    <path d="M10760 3746 c0 -24 -3 -63 -6 -88 -6 -45 -6 -45 327 -52 184 -3 505
-11 714 -16 1243 -31 1278 -31 1287 -18 4 7 8 45 8 84 0 72 0 72 -142 78 -126
6 -959 26 -1743 41 -148 3 -309 7 -357 10 -88 5 -88 5 -88 -39z" />
    <path d="M9430 2637 c0 -101 -3 -231 -6 -289 -7 -106 -7 -106 282 -110 159 -3
290 -4 291 -3 1 1 6 108 9 238 6 210 5 237 -8 237 -13 0 -16 -25 -17 -177 -1
-98 -4 -199 -8 -225 -6 -48 -6 -48 -92 -48 -47 0 -164 3 -258 7 -173 6 -173 6
-173 118 0 61 3 180 7 263 l6 151 239 -6 c159 -4 238 -3 238 4 0 16 -89 23
-307 23 l-203 0 0 -183z" />
    <path d="M10730 2707 c0 -85 0 -85 83 -91 45 -4 252 -10 460 -14 377 -7 377
-7 377 79 0 86 0 86 -322 93 -178 3 -385 9 -460 13 -138 6 -138 6 -138 -80z" />
  </g>
  <g transform="translate(0.000000,1032.000000) scale(0.100000,-0.100000)" fill="#1f3b87" stroke="none">
    <path d="M5930 4976 c0 -13 39 -30 48 -21 8 7 -20 35 -34 35 -8 0 -14 -6 -14
-14z" />
    <path d="M5890 4965 c0 -8 7 -15 15 -15 8 0 15 7 15 15 0 8 -7 15 -15 15 -8 0
-15 -7 -15 -15z" />
    <path d="M5970 4926 c0 -9 5 -16 10 -16 6 0 10 4 10 9 0 6 -4 13 -10 16 -5 3
-10 -1 -10 -9z" />
    <path d="M5496 4891 c-4 -7 -5 -15 -2 -18 9 -9 19 4 14 18 -4 11 -6 11 -12 0z" />
    <path d="M5870 4879 c-144 -31 -361 -53 -371 -38 -10 17 -12 12 -39 -106 -11
-49 -30 -120 -40 -156 -20 -66 -20 -66 -84 -83 -34 -10 -81 -19 -102 -21 -21
-1 -47 -6 -56 -10 -9 -4 -51 -5 -92 -3 -42 2 -76 -1 -76 -6 0 -4 -7 -79 -15
-165 -22 -223 -52 -529 -70 -721 -8 -91 -20 -208 -25 -260 -5 -52 -17 -169
-25 -260 -9 -91 -24 -255 -35 -365 -11 -110 -26 -274 -35 -365 -8 -91 -20
-208 -25 -260 -5 -52 -17 -169 -25 -260 -9 -91 -24 -253 -35 -360 -39 -397
-47 -356 75 -363 128 -8 307 -7 390 2 60 6 60 6 91 191 17 102 48 282 68 400
21 118 44 253 51 300 8 47 21 126 30 175 9 50 38 221 65 380 27 160 56 331 65
380 9 50 22 128 30 175 7 47 30 180 50 295 59 339 104 603 121 713 17 103 37
142 29 55 -3 -27 -7 -120 -10 -208 -7 -208 -32 -853 -45 -1165 -9 -222 -21
-513 -50 -1260 -5 -140 -12 -294 -16 -341 -6 -86 -6 -86 72 -92 98 -9 293 -9
372 -1 71 8 65 -11 82 254 5 85 15 223 20 305 6 83 17 256 25 385 8 129 20
300 25 380 6 80 17 249 25 375 19 300 33 507 45 680 6 77 17 246 25 375 8 129
20 296 25 370 5 74 13 196 16 270 7 135 7 135 -137 132 -79 -2 -155 1 -169 6
-22 9 -29 25 -59 138 -18 71 -35 135 -37 142 -4 15 -17 14 -124 -9z" />
    <path d="M5770 945 c0 -8 7 -15 15 -15 8 0 15 7 15 15 0 8 -7 15 -15 15 -8 0
-15 -7 -15 -15z" />
    <path d="M4790 935 c0 -8 5 -15 10 -15 6 0 10 7 10 15 0 8 -4 15 -10 15 -5 0
-10 -7 -10 -15z" />
    <path d="M4930 905 c0 -8 7 -15 15 -15 8 0 15 7 15 15 0 8 -7 15 -15 15 -8 0
-15 -7 -15 -15z" />
    <path d="M5000 905 c0 -8 7 -15 15 -15 8 0 15 7 15 15 0 8 -7 15 -15 15 -8 0
-15 -7 -15 -15z" />
  </g>
  <g transform="translate(0.000000,1032.000000) scale(0.100000,-0.100000)" fill="#f9c242" stroke="none">
    <path d="M3517 6600 c-32 -4 -60 -10 -63 -13 -3 -2 0 -60 6 -128 6 -68 17
-196 25 -284 23 -267 74 -833 85 -947 5 -60 15 -156 20 -215 11 -117 62 -686
85 -953 8 -91 19 -214 25 -275 6 -60 17 -186 25 -280 18 -203 29 -325 49 -545
9 -91 29 -320 46 -510 32 -367 50 -553 54 -557 3 -3 219 18 223 22 2 1 -2 48
-7 106 -13 129 -26 273 -45 494 -17 191 -27 306 -49 545 -9 91 -20 219 -26
285 -5 66 -16 192 -25 280 -8 88 -24 264 -35 390 -12 127 -25 277 -30 335 -6
58 -17 182 -25 275 -8 94 -19 217 -24 275 -17 182 -30 341 -37 450 -9 146 -14
209 -19 250 -3 19 -7 67 -10 105 -3 39 -9 95 -15 125 -5 30 -14 111 -19 180
-6 69 -15 172 -21 230 -17 176 -30 324 -30 348 0 20 -4 22 -52 21 -29 -1 -79
-5 -111 -9z" />
    <path d="M3268 6578 c-53 -6 -88 -15 -88 -22 0 -21 36 -429 60 -673 5 -61 17
-187 25 -280 19 -232 53 -606 65 -738 22 -235 30 -314 40 -425 13 -141 46
-518 65 -740 8 -91 19 -214 25 -275 6 -60 17 -186 25 -280 17 -191 27 -306 49
-545 9 -91 20 -219 26 -285 19 -229 40 -439 45 -444 7 -6 225 16 233 23 6 7 1
69 -49 621 -16 182 -37 406 -44 500 -8 93 -20 217 -25 275 -6 58 -15 159 -20
225 -6 66 -14 165 -20 220 -5 55 -14 154 -20 220 -6 66 -15 165 -20 220 -10
105 -52 574 -70 780 -5 66 -19 217 -30 335 -11 118 -27 292 -35 385 -8 94 -19
220 -25 280 -15 168 -41 461 -48 550 -7 80 -7 80 -42 81 -19 1 -74 -3 -122 -8z" />
    <path d="M2970 6551 c-43 -6 -45 -7 -42 -36 1 -16 7 -79 12 -140 6 -60 17
-186 25 -280 14 -163 20 -233 46 -503 6 -68 9 -132 6 -142 -4 -17 -1 -19 38
-14 78 11 105 -22 125 -149 14 -92 10 -115 -55 -312 -51 -154 -50 -135 -25
-395 25 -257 60 -636 105 -1160 8 -91 19 -214 25 -275 5 -60 15 -159 20 -220
6 -60 17 -184 25 -275 8 -91 23 -264 34 -385 11 -121 23 -259 26 -306 4 -48
11 -92 15 -99 6 -9 34 -10 115 -5 108 8 108 8 101 104 -3 53 -10 141 -16 196
-5 55 -17 174 -25 265 -26 284 -55 618 -70 790 -8 91 -19 215 -25 275 -6 61
-17 187 -25 280 -16 188 -26 298 -49 545 -9 91 -29 320 -46 510 -17 190 -37
419 -46 510 -25 267 -33 365 -49 550 -8 96 -20 220 -25 275 -5 55 -15 169 -22
253 -12 152 -12 152 -82 150 -39 0 -91 -4 -116 -7z" />
    <path d="M3905 1434 c-142 -14 -481 -44 -503 -44 -11 0 -12 -17 -7 -87 4 -49
8 -89 9 -90 1 -2 66 4 426 36 351 32 330 29 325 60 -2 14 -7 52 -10 84 -6 57
-6 57 -58 56 -29 -1 -110 -8 -182 -15z" />
  </g>
  <g transform="translate(0.000000,1032.000000) scale(0.100000,-0.100000)" fill="#35af9b" stroke="none">
    <path d="M11189 9546 c-102 -42 -165 -101 -206 -196 -13 -30 -34 -77 -46 -103
-11 -26 -44 -70 -74 -98 -73 -69 -146 -101 -254 -110 -170 -14 -272 -94 -317
-249 -6 -19 -14 -169 -17 -332 l-7 -298 1121 0 1121 0 -1 113 c0 61 -4 204 -8
317 -6 191 -8 209 -32 260 -54 116 -148 176 -299 190 -107 10 -178 39 -245
101 -47 44 -105 131 -105 159 0 24 -50 112 -84 148 -90 97 -163 122 -350 122
-124 0 -148 -3 -197 -24z m313 -142 c58 -41 80 -75 86 -132 12 -127 -67 -212
-198 -212 -224 0 -278 282 -70 369 47 20 136 8 182 -25z" />
    <path d="M10020 6823 c-91 -102 -186 -213 -213 -245 -28 -36 -49 -54 -52 -46
-2 7 -12 40 -21 73 -17 63 -44 94 -81 95 -27 0 -28 -12 -8 -90 28 -111 38
-135 70 -167 55 -55 76 -44 196 97 34 41 93 107 129 145 36 39 76 84 89 100
13 17 51 60 83 96 32 37 58 72 58 78 0 12 -58 51 -75 51 -5 0 -84 -84 -175
-187z" />
    <path d="M10117 5940 c-20 -23 -60 -69 -91 -103 -83 -94 -200 -229 -222 -256
-73 -92 -69 -91 -90 -12 -20 78 -47 111 -91 111 -26 0 -27 4 8 -130 46 -174
118 -204 210 -88 90 114 214 248 230 248 5 0 9 7 9 15 0 13 145 185 163 193
14 7 7 31 -15 46 -39 27 -72 20 -111 -24z" />
    <path d="M10068 4888 c-100 -111 -279 -317 -313 -362 -15 -20 -31 -34 -34 -31
-3 4 -15 36 -26 73 -18 58 -25 70 -57 87 -20 11 -40 16 -44 13 -17 -18 28
-183 66 -243 21 -33 32 -41 63 -43 42 -4 38 -7 167 144 47 54 101 117 122 139
89 96 218 250 218 260 0 13 -52 45 -73 45 -8 0 -48 -37 -89 -82z" />
    <path d="M10050 3894 c-35 -41 -69 -79 -75 -82 -6 -4 -18 -16 -26 -28 -8 -12
-45 -55 -83 -97 -38 -43 -89 -103 -113 -134 -53 -69 -60 -73 -69 -36 -23 105
-29 118 -66 138 -54 29 -61 15 -38 -77 23 -94 45 -146 72 -175 37 -39 97 -26
136 30 12 18 34 46 49 62 16 17 59 65 96 108 38 42 74 74 79 70 6 -3 8 -2 5 4
-6 10 30 57 136 176 61 68 64 86 21 106 -44 20 -58 12 -124 -65z" />
    <path d="M10042 2922 c-85 -97 -109 -122 -122 -122 -6 0 -9 -4 -5 -10 3 -5
-16 -33 -42 -62 -26 -29 -70 -80 -98 -112 -116 -136 -100 -131 -125 -44 -20
69 -27 79 -57 93 -57 27 -60 13 -25 -120 19 -76 47 -131 71 -145 50 -26 86 -7
161 86 24 30 151 173 178 201 7 7 18 13 23 13 5 0 9 6 9 13 0 7 38 56 85 109
47 53 85 103 85 111 0 18 -42 47 -68 47 -10 0 -42 -26 -70 -58z" />
  </g>
  <g transform="translate(0.000000,1032.000000) scale(0.100000,-0.100000)" fill="#d2dffe" stroke="none">
    <path d="M13325 8440 c3 -5 8 -10 11 -10 2 0 4 5 4 10 0 6 -5 10 -11 10 -5 0
-7 -4 -4 -10z" />
    <path d="M13440 8440 c0 -5 7 -10 16 -10 8 0 12 5 9 10 -3 6 -10 10 -16 10 -5
0 -9 -4 -9 -10z" />
    <path d="M10818 6328 c-3 -85 -3 -85 197 -91 110 -4 421 -11 690 -17 270 -6
536 -11 593 -13 102 -3 102 -3 102 83 0 86 0 86 -597 98 -329 7 -684 16 -790
19 -191 6 -191 6 -195 -79z" />
    <path d="M10800 5368 c0 -18 -3 -56 -6 -84 -7 -58 -169 -47 1231 -79 358 -8
750 -17 873 -21 222 -7 222 -7 222 78 0 85 0 85 -207 92 -115 3 -397 11 -628
16 -231 6 -598 15 -815 20 -217 5 -457 10 -532 10 -138 0 -138 0 -138 -32z" />
    <path d="M10770 4317 c0 -85 0 -85 53 -90 28 -4 250 -9 492 -12 242 -3 452 -8
468 -11 27 -6 27 -6 27 84 0 89 0 89 -437 96 -241 3 -475 9 -520 12 -83 6 -83
6 -83 -79z" />
    <path d="M10750 3359 c0 -19 -3 -57 -6 -85 -7 -56 -166 -46 1368 -86 252 -6
460 -10 462 -7 2 2 7 40 10 85 8 91 99 80 -889 104 -214 5 -515 12 -667 16
-278 7 -278 7 -278 -27z" />
    <path d="M10727 2354 c-4 -22 -7 -60 -7 -85 0 -46 0 -46 278 -53 152 -4 426
-11 607 -17 182 -6 567 -12 856 -13 600 -1 556 -8 584 87 8 28 15 54 15 57 0
4 -222 12 -492 19 -271 6 -650 16 -843 21 -192 5 -494 12 -671 16 -321 7 -321
7 -327 -32z" />
  </g>
  <g transform="translate(0.000000,1032.000000) scale(0.100000,-0.100000)" fill="#e4e4e4" stroke="none">
    <path d="M13330 8440 c0 -10 -79 -12 -415 -8 l-415 5 0 -133 0 -134 -1110 0
-1110 0 0 135 c0 135 0 135 -85 135 -85 0 -85 0 -85 -200 l0 -200 1285 0 1285
0 0 165 c0 165 0 165 38 160 20 -2 84 -7 142 -10 58 -3 166 -10 240 -16 74 -5
243 -16 375 -24 132 -8 275 -18 318 -21 77 -7 77 -7 77 70 0 76 0 76 -178 76
-99 0 -220 3 -270 6 -72 6 -92 4 -92 -6z" />
    <path d="M5177 7367 c-20 -30 -21 -37 -7 -37 6 0 10 6 10 14 0 8 5 16 12 18 6
2 9 10 7 17 -3 9 -11 5 -22 -12z" />
    <path d="M7310 7098 c0 -10 7 -18 15 -18 8 0 15 8 15 18 0 10 -7 19 -15 19 -8
0 -15 -9 -15 -19z" />
    <path d="M6355 6879 c-18 -4 6 -6 60 -2 50 3 92 7 94 9 8 7 -124 2 -154 -7z" />
    <path d="M6730 6884 c58 -8 150 -8 150 -1 0 4 -39 6 -87 6 -49 -1 -77 -3 -63
-5z" />
    <path d="M7070 6860 c0 -5 7 -10 16 -10 8 0 12 5 9 10 -3 6 -10 10 -16 10 -5
0 -9 -4 -9 -10z" />
    <path d="M6050 6844 c-65 -13 -65 -13 0 -7 36 3 72 9 80 14 21 12 3 10 -80 -7z" />
    <path d="M7514 6764 c44 -13 85 -24 90 -23 16 1 -136 49 -154 48 -8 0 21 -11
64 -25z" />
    <path d="M7800 6675 c0 -9 152 -77 158 -71 2 3 -6 10 -19 15 -22 8 -113 48
-131 58 -5 2 -8 1 -8 -2z" />
    <path d="M8203 6470 c38 -23 70 -40 72 -38 5 5 -92 64 -120 74 -11 3 11 -13
48 -36z" />
    <path d="M5540 6246 c0 -9 5 -16 10 -16 6 0 10 4 10 9 0 6 -4 13 -10 16 -5 3
-10 -1 -10 -9z" />
    <path d="M5580 6036 c0 -9 5 -16 10 -16 6 0 10 4 10 9 0 6 -4 13 -10 16 -5 3
-10 -1 -10 -9z" />
    <path d="M5590 5986 c0 -9 5 -16 10 -16 6 0 10 4 10 9 0 6 -4 13 -10 16 -5 3
-10 -1 -10 -9z" />
    <path d="M5810 5481 c0 -6 5 -13 10 -16 6 -3 10 1 10 9 0 9 -4 16 -10 16 -5 0
-10 -4 -10 -9z" />
    <path d="M5820 5331 c0 -6 5 -13 10 -16 6 -3 10 1 10 9 0 9 -4 16 -10 16 -5 0
-10 -4 -10 -9z" />
    <path d="M2876 5311 c-4 -7 -5 -15 -2 -18 9 -9 19 4 14 18 -4 11 -6 11 -12 0z" />
    <path d="M2997 4898 c-40 -51 -71 -98 -64 -98 3 0 28 32 56 70 57 78 61 93 8
28z" />
    <path d="M13866 4643 c-39 -1071 -147 -1937 -317 -2533 -41 -144 -113 -349
-123 -350 -1 0 -28 -5 -61 -10 -267 -46 -909 -134 -1230 -170 -421 -47 -580
-62 -1080 -100 -379 -28 -898 -42 -1375 -36 -267 3 -540 9 -607 12 -123 6
-123 6 -123 -46 0 -53 0 -53 668 -46 367 4 708 9 757 11 50 3 212 7 360 10
646 14 1218 38 1895 80 239 14 303 19 675 50 99 8 215 18 257 21 77 7 77 7 97
63 83 232 153 790 176 1411 3 80 7 188 10 240 2 52 7 176 11 275 4 99 8 191
10 205 6 46 17 1100 12 1100 -3 0 -8 -84 -12 -187z" />
    <path d="M2771 4560 c-22 -39 -37 -69 -32 -66 12 8 82 128 78 133 -3 2 -23
-28 -46 -67z" />
    <path d="M14395 4493 c10 -10 85 -34 101 -32 9 0 -40 20 -86 34 -16 4 -21 4
-15 -2z" />
    <path d="M14710 4376 c28 -17 50 -21 35 -7 -6 5 -21 12 -35 15 -25 7 -25 7 0
-8z" />
    <path d="M14760 4356 c0 -2 18 -13 40 -24 22 -11 40 -16 40 -13 0 4 -16 15
-35 24 -37 17 -45 20 -45 13z" />
    <path d="M2594 4239 c-19 -39 -34 -73 -32 -75 2 -2 21 30 41 71 20 41 35 75
32 75 -3 0 -21 -32 -41 -71z" />
    <path d="M15078 4171 c41 -29 76 -51 78 -48 5 5 -107 84 -132 93 -11 4 14 -17
54 -45z" />
    <path d="M15365 3930 c33 -33 61 -60 63 -60 10 0 -23 42 -62 78 -68 63 -69 51
-1 -18z" />
    <path d="M2465 3953 c-31 -77 -55 -147 -49 -140 10 10 64 150 60 154 -2 2 -7
-4 -11 -14z" />
    <path d="M15597 3658 c57 -77 69 -91 53 -58 -19 37 -83 120 -92 120 -4 0 13
-28 39 -62z" />
    <path d="M2346 3615 c-3 -9 -6 -22 -5 -28 0 -7 5 -1 10 12 5 13 8 26 5 28 -2
2 -6 -3 -10 -12z" />
    <path d="M2321 3533 c-16 -58 -12 -75 5 -19 9 26 13 50 10 53 -2 3 -9 -12 -15
-34z" />
    <path d="M15762 3403 c2 -5 21 -43 42 -85 38 -77 54 -101 36 -54 -16 42 -70
146 -76 146 -3 0 -4 -3 -2 -7z" />
    <path d="M2245 3180 c-4 -28 -5 -54 -2 -56 3 -3 8 18 12 46 4 28 5 54 2 56 -3
3 -8 -18 -12 -46z" />
    <path d="M15910 3039 c1 -24 38 -165 39 -147 1 9 -6 47 -15 85 -15 66 -24 90
-24 62z" />
    <path d="M2207 2861 c-4 -18 -6 -59 -6 -90 2 -56 2 -56 11 14 10 79 7 131 -5
76z" />
    <path d="M15963 2605 c0 -44 2 -61 4 -37 2 23 2 59 0 80 -2 20 -4 1 -4 -43z" />
    <path d="M2207 2440 c3 -47 7 -87 9 -89 8 -9 2 135 -6 154 -6 13 -7 -11 -3
-65z" />
    <path d="M15911 2264 c-7 -25 -10 -48 -8 -51 3 -2 10 17 16 43 7 25 10 48 8
51 -3 2 -10 -17 -16 -43z" />
    <path d="M15885 2180 c-4 -12 -5 -24 -2 -27 3 -2 8 5 12 17 4 12 5 24 2 27 -3
2 -8 -5 -12 -17z" />
    <path d="M2241 2138 c1 -7 5 -24 9 -38 8 -24 8 -24 9 7 1 17 -3 35 -9 38 -5 3
-10 0 -9 -7z" />
    <path d="M2262 2050 c0 -14 4 -36 8 -50 11 -34 11 3 0 45 -7 27 -8 27 -8 5z" />
    <path d="M15791 1960 c-1 -8 -19 -44 -42 -79 -22 -35 -38 -65 -35 -68 8 -8 88
136 83 149 -4 9 -6 9 -6 -2z" />
    <path d="M2337 1744 c8 -25 17 -43 20 -41 6 6 -21 87 -29 87 -4 0 0 -20 9 -46z" />
    <path d="M15541 1604 c-24 -24 -42 -47 -39 -49 3 -3 24 15 47 41 24 25 41 47
39 49 -2 2 -24 -16 -47 -41z" />
    <path d="M5110 994 c0 -8 5 -12 10 -9 6 3 10 10 10 16 0 5 -4 9 -10 9 -5 0
-10 -7 -10 -16z" />
  </g>
  <g transform="translate(0.000000,1032.000000) scale(0.100000,-0.100000)" fill="#f9ac82" stroke="none">
    <path d="M5663 7591 c-61 -55 -135 -76 -215 -62 -34 6 -63 10 -64 8 -1 -1 -10
-36 -21 -77 -17 -70 -20 -75 -43 -72 -14 1 -47 5 -75 8 -50 6 -50 6 -73 -46
-22 -49 -23 -53 -8 -96 23 -69 68 -104 133 -104 31 0 43 -4 47 -17 3 -10 21
-35 40 -55 34 -37 34 -37 39 -185 6 -157 8 -176 15 -169 2 3 22 -6 43 -20 88
-55 193 -54 279 2 40 27 40 27 40 126 0 100 0 100 -32 92 -45 -10 -94 -6 -132
11 -31 13 -31 13 30 14 34 1 75 6 92 12 30 10 35 18 92 129 34 67 47 213 34
386 -7 81 -7 81 -53 93 -25 7 -60 23 -78 37 -40 31 -40 31 -90 -15z m165 -218
c-16 -15 -18 -15 -24 0 -3 9 -3 25 0 34 6 15 8 15 24 0 15 -16 15 -18 0 -34z
m-224 -10 c8 -19 -8 -38 -23 -29 -16 10 -13 46 3 46 8 0 17 -8 20 -17z m146
-233 c-26 -48 -94 -51 -124 -5 -16 25 -16 25 59 25 73 0 75 -1 65 -20z" />
    <path d="M3255 7398 c-10 -6 -41 -12 -68 -12 -50 -1 -50 -1 -156 -426 l-106
-425 90 8 c50 4 144 12 210 19 66 6 147 13 180 14 33 1 108 9 166 16 l106 13
-81 165 c-45 91 -130 268 -191 393 -60 126 -114 232 -120 237 -6 5 -18 4 -30
-2z" />
    <path d="M7245 7203 c0 -82 -4 -157 -8 -167 -7 -18 -11 -15 -37 24 -16 24 -38
47 -48 51 -37 14 -142 -24 -142 -51 0 -6 -5 -9 -12 -7 -12 2 -36 -102 -37
-160 -1 -39 45 -120 101 -179 39 -41 39 -41 18 -97 -21 -56 -21 -56 62 -136
46 -44 96 -90 111 -101 15 -12 25 -25 22 -30 -3 -4 3 -7 12 -6 19 3 48 99 77
255 7 42 25 103 39 136 65 153 109 455 66 455 -11 0 -34 -44 -49 -97 -7 -24
-16 -43 -19 -43 -3 0 -5 48 -3 107 3 105 -8 170 -27 158 -10 -6 -24 -66 -39
-170 -9 -55 -10 -56 -11 -18 -1 56 -28 178 -43 203 -27 43 -33 20 -33 -127z
m-97 -225 c23 -63 23 -63 -10 -90 -54 -45 -74 -33 -88 54 -4 29 -11 63 -15 76
-7 21 -5 22 42 22 49 0 49 0 71 -62z" />
    <path d="M3785 5459 c-4 -6 -5 -12 -2 -15 2 -3 7 2 10 11 7 17 1 20 -8 4z" />
    <path d="M3044 5448 c-42 -11 -122 -66 -148 -100 -43 -59 -25 -216 36 -315 25
-42 96 -103 120 -103 15 0 18 8 18 54 0 54 0 54 54 80 53 26 55 28 67 84 19
91 -12 263 -51 287 -25 15 -67 21 -96 13z" />
    <path d="M3791 5364 c0 -11 3 -14 6 -6 3 7 2 16 -1 19 -3 4 -6 -2 -5 -13z" />
    <path d="M4814 1013 c-10 -38 -19 -73 -20 -80 -1 -6 17 -16 40 -21 53 -14 264
-14 272 -1 3 5 11 46 18 89 13 80 13 80 -139 80 -152 0 -152 0 -171 -67z" />
    <path d="M5760 1009 c0 -60 2 -70 16 -65 8 3 13 2 9 -3 -13 -23 265 -26 286
-3 4 4 9 37 11 75 4 67 4 67 -159 67 -163 0 -163 0 -163 -71z" />
    <path d="M4150 794 c0 -8 5 -12 10 -9 6 3 10 10 10 16 0 5 -4 9 -10 9 -5 0
-10 -7 -10 -16z" />
    <path d="M3990 610 c0 -5 4 -10 9 -10 6 0 13 5 16 10 3 6 -1 10 -9 10 -9 0
-16 -4 -16 -10z" />
  </g>
  <g transform="translate(0.000000,1032.000000) scale(0.100000,-0.100000)" fill="#11204a" stroke="none">
    <path d="M5435 7957 c-99 -26 -180 -89 -206 -162 -7 -19 -17 -35 -21 -35 -5 0
-29 -19 -53 -41 -70 -64 -82 -147 -35 -239 34 -66 66 -98 95 -92 32 6 115 -17
115 -31 0 -31 31 38 45 98 16 71 16 71 79 62 81 -13 159 10 219 63 42 37 42
37 72 15 63 -47 138 -54 209 -17 57 28 106 113 106 180 -1 80 -73 174 -144
187 -33 7 -98 -8 -122 -27 -7 -5 -40 1 -87 17 -92 30 -203 39 -272 22z" />
    <path d="M5780 7493 c-16 -6 -30 -23 -30 -36 0 -4 10 -3 21 4 12 6 38 9 58 6
36 -6 36 -6 12 13 -24 20 -35 23 -61 13z" />
    <path d="M5528 7459 c-10 -5 -18 -17 -18 -25 0 -12 4 -12 26 3 21 14 33 15 65
6 41 -11 53 -1 20 17 -25 13 -71 12 -93 -1z" />
    <path d="M5794 7416 c-11 -28 0 -61 20 -61 27 0 44 30 30 53 -15 22 -43 27
-50 8z" />
    <path d="M5564 7386 c-12 -32 0 -61 26 -61 31 0 39 34 15 59 -20 20 -34 20
-41 2z" />
    <path d="M5944 4981 c3 -4 -6 -6 -21 -3 -18 3 -24 1 -19 -6 5 -8 1 -10 -9 -5
-10 3 -20 1 -24 -5 -10 -16 -215 -43 -297 -40 -68 3 -68 3 -80 -49 -12 -53
-12 -53 15 -53 52 0 288 31 380 50 52 10 97 17 101 15 4 -3 0 20 -8 50 -9 33
-21 55 -29 55 -8 0 -12 -4 -9 -9z" />
    <path d="M3950 1910 c-36 -4 -71 -5 -77 -3 -7 3 -35 0 -61 -7 -27 -6 -91 -13
-143 -16 -52 -3 -145 -10 -206 -16 -132 -13 -121 14 -98 -228 25 -263 24 -260
49 -260 50 1 720 62 725 66 2 2 -1 52 -7 111 -6 59 -17 165 -23 236 -14 143
-2 135 -159 117z" />
    <path d="M3855 1264 c-132 -13 -286 -27 -343 -32 -56 -5 -104 -11 -106 -13 -2
-2 2 -55 7 -117 11 -114 11 -114 82 -107 144 12 293 26 380 35 50 5 137 12
195 16 105 7 105 7 96 125 -9 119 -9 119 -40 118 -17 -1 -139 -12 -271 -25z" />
  </g>
  <g transform="translate(0.000000,1032.000000) scale(0.100000,-0.100000)" fill="#cf973a" stroke="none">
    <path d="M5218 7393 c6 -2 18 -2 25 0 6 3 1 5 -13 5 -14 0 -19 -2 -12 -5z" />
    <path d="M3421 6498 c9 -108 36 -414 49 -553 6 -60 17 -186 25 -280 8 -93 24
-267 35 -385 11 -118 25 -269 30 -335 18 -206 60 -675 70 -780 5 -55 14 -154
20 -220 6 -66 15 -165 20 -220 6 -55 14 -154 20 -220 5 -66 14 -167 20 -225 5
-58 17 -182 25 -275 7 -94 28 -321 44 -505 17 -184 36 -395 43 -468 11 -130
12 -132 36 -132 24 0 24 2 18 48 -3 26 -10 103 -16 172 -6 69 -19 222 -30 340
-11 118 -29 319 -40 445 -12 127 -25 277 -30 335 -6 58 -17 182 -25 275 -8 94
-19 220 -25 280 -6 61 -17 184 -25 275 -22 256 -74 833 -85 950 -5 58 -14 155
-20 215 -11 115 -61 671 -85 955 -8 91 -19 212 -25 270 -5 58 -9 108 -10 113
0 4 -10 7 -23 7 -22 0 -22 -1 -16 -82z" />
    <path d="M3156 6418 c7 -79 19 -222 28 -318 9 -96 21 -229 26 -295 19 -213 29
-317 44 -485 9 -91 29 -320 46 -510 17 -190 37 -419 46 -510 23 -247 33 -357
49 -545 8 -93 19 -219 25 -280 6 -60 17 -184 25 -275 32 -372 82 -922 95
-1055 5 -55 13 -139 16 -187 7 -86 13 -98 42 -80 10 7 9 40 -3 168 -8 87 -20
213 -25 279 -6 66 -17 194 -26 285 -22 239 -32 354 -49 545 -8 94 -19 220 -25
280 -6 61 -17 184 -25 275 -19 222 -52 599 -65 740 -10 111 -18 190 -40 425
-12 132 -46 506 -65 738 -8 93 -20 219 -25 280 -17 178 -59 639 -60 665 0 1
-10 2 -23 2 -22 0 -22 0 -11 -142z" />
    <path d="M3118 5077 c-58 -30 -58 -30 -57 -81 0 -28 6 -80 13 -115 12 -65 12
-65 59 79 26 79 46 144 44 145 -1 1 -28 -12 -59 -28z" />
    <path d="M3458 1383 c7 -3 16 -2 19 1 4 3 -2 6 -13 5 -11 0 -14 -3 -6 -6z" />
    <path d="M3778 1253 c7 -3 16 -2 19 1 4 3 -2 6 -13 5 -11 0 -14 -3 -6 -6z" />
    <path d="M3920 1040 c0 -5 7 -10 15 -10 8 0 15 5 15 10 0 6 -7 10 -15 10 -8 0
-15 -4 -15 -10z" />
    <path d="M3830 1030 c0 -5 7 -10 15 -10 8 0 15 5 15 10 0 6 -7 10 -15 10 -8 0
-15 -4 -15 -10z" />
    <path d="M3610 1010 c0 -5 7 -10 15 -10 8 0 15 5 15 10 0 6 -7 10 -15 10 -8 0
-15 -4 -15 -10z" />
  </g>
  <g transform="translate(0.000000,1032.000000) scale(0.100000,-0.100000)" fill="#4c3a34" stroke="none">
    <path d="M3171 7613 c-6 -27 -15 -90 -19 -140 -9 -105 -5 -110 66 -98 69 11
69 13 40 117 -31 109 -55 168 -67 168 -5 0 -14 -21 -20 -47z" />
    <path d="M5720 7616 c0 -2 8 -10 18 -17 15 -13 16 -12 3 4 -13 16 -21 21 -21
13z" />
    <path d="M4035 1050 c-3 -5 3 -10 14 -10 12 0 21 5 21 10 0 6 -6 10 -14 10 -8
0 -18 -4 -21 -10z" />
    <path d="M3915 1040 c-3 -5 1 -10 10 -10 9 0 13 5 10 10 -3 6 -8 10 -10 10 -2
0 -7 -4 -10 -10z" />
    <path d="M3825 1030 c-3 -5 1 -10 10 -10 9 0 13 5 10 10 -3 6 -8 10 -10 10 -2
0 -7 -4 -10 -10z" />
    <path d="M3695 1020 c-3 -5 3 -10 14 -10 12 0 21 5 21 10 0 6 -6 10 -14 10 -8
0 -18 -4 -21 -10z" />
    <path d="M3605 1010 c-3 -5 1 -10 10 -10 9 0 13 5 10 10 -3 6 -8 10 -10 10 -2
0 -7 -4 -10 -10z" />
    <path d="M3475 1000 c-3 -5 3 -10 14 -10 12 0 21 5 21 10 0 6 -6 10 -14 10 -8
0 -18 -4 -21 -10z" />
    <path d="M5755 937 c-2 -6 -6 -60 -9 -119 -3 -58 -9 -138 -12 -177 -7 -71 -7
-71 365 -71 290 0 371 3 371 13 0 21 -41 81 -82 120 -52 49 -166 103 -251 118
-69 13 -69 13 -65 70 3 58 3 58 -27 51 -40 -9 -211 -9 -253 0 -23 5 -34 4 -37
-5z" />
    <path d="M4785 918 c-3 -7 -11 -30 -18 -51 -12 -36 -18 -40 -117 -80 -154 -63
-241 -123 -276 -189 -15 -28 -15 -28 336 -28 192 0 350 3 350 8 0 4 9 59 19
122 36 218 36 223 11 215 -33 -10 -200 -7 -240 5 -46 13 -60 13 -65 -2z" />
  </g>
  <g transform="translate(0.000000,1032.000000) scale(0.100000,-0.100000)" fill="#ed7059" stroke="none">
    <path d="M5711 7342 c-1 -39 14 -72 33 -72 8 0 19 -7 26 -15 11 -13 9 -20 -11
-42 -24 -26 -9 -23 24 5 25 22 21 40 -15 62 -21 13 -37 33 -44 57 -12 38 -12
38 -13 5z" />
    <path d="M5200 7319 c0 -6 6 -9 14 -6 7 3 27 -3 45 -14 34 -20 42 -12 13 14
-21 19 -72 23 -72 6z" />
    <path d="M5760 6978 c-30 -16 -48 -19 -120 -14 -47 2 -94 7 -105 11 -11 3 6
-8 38 -25 72 -38 142 -53 191 -39 34 9 36 13 36 49 0 22 -1 39 -2 39 -2 -1
-19 -10 -38 -21z" />
    <path d="M10065 5720 c-3 -5 -1 -10 4 -10 6 0 11 5 11 10 0 6 -2 10 -4 10 -3
0 -8 -4 -11 -10z" />
    <path d="M9910 2800 c0 -5 5 -10 11 -10 5 0 7 5 4 10 -3 6 -8 10 -11 10 -2 0
-4 -4 -4 -10z" />
    <path d="M4050 1055 c-8 -2 -76 -8 -150 -15 -74 -6 -175 -15 -225 -20 -49 -5
-127 -12 -172 -16 -82 -6 -82 -6 -77 -53 19 -158 43 -219 115 -290 80 -79 115
-91 265 -91 120 0 133 2 179 26 143 75 213 209 199 382 -7 82 -7 82 -63 81
-31 -1 -63 -3 -71 -4z" />
  </g>
  <g transform="translate(0.000000,1032.000000) scale(0.100000,-0.100000)" fill="#bcc4db" stroke="none">
    <path d="M13358 8443 c17 -2 47 -2 65 0 17 2 3 4 -33 4 -36 0 -50 -2 -32 -4z" />
    <path d="M13893 7255 c0 -27 2 -38 4 -22 2 15 2 37 0 50 -2 12 -4 0 -4 -28z" />
    <path d="M8881 6464 c0 -11 3 -14 6 -6 3 7 2 16 -1 19 -3 4 -6 -2 -5 -13z" />
    <path d="M5495 6441 c4 -19 9 -50 11 -70 2 -20 8 -63 14 -96 60 -364 62 -879
4 -1224 -21 -126 -20 -131 19 -131 18 0 40 6 49 13 44 33 71 457 49 742 -18
224 -56 450 -117 690 -24 95 -45 148 -29 76z" />
    <path d="M5807 6146 c-11 -173 -8 -412 8 -666 18 -273 47 -520 62 -520 9 0 93
23 93 25 0 2 -7 36 -15 76 -8 41 -17 92 -20 114 -11 73 -14 89 -29 180 -19
113 -51 394 -66 590 -7 83 -15 186 -19 230 -7 80 -7 80 -14 -29z" />
    <path d="M13892 5930 c0 -19 2 -27 5 -17 2 9 2 25 0 35 -3 9 -5 1 -5 -18z" />
    <path d="M13873 4160 c0 -30 2 -43 4 -27 2 15 2 39 0 55 -2 15 -4 2 -4 -28z" />
  </g>
  <g transform="translate(0.000000,1032.000000) scale(0.100000,-0.100000)" fill="#6e8bd3" stroke="none">
    <path d="M4963 903 c9 -2 25 -2 35 0 9 3 1 5 -18 5 -19 0 -27 -2 -17 -5z" />
  </g>
</svg>